<svg width="99" height="20" viewBox="0 0 99 20" fill="none" xmlns="http://www.w3.org/2000/svg">
<path d="M10.16 10.4081C11.104 10.5841 11.88 11.0561 12.488 11.8241C13.096 12.5921 13.4 13.4721 13.4 14.4641C13.4 15.3601 13.176 16.1521 12.728 16.8401C12.296 17.5121 11.664 18.0401 10.832 18.4241C10 18.8081 9.01601 19.0001 7.88001 19.0001H0.656006V2.24808H7.56801C8.70401 2.24808 9.68001 2.43208 10.496 2.80008C11.328 3.16808 11.952 3.68008 12.368 4.33608C12.8 4.99208 13.016 5.73608 13.016 6.56808C13.016 7.54408 12.752 8.36008 12.224 9.01608C11.712 9.67208 11.024 10.1361 10.16 10.4081ZM4.01601 9.16008H7.08801C7.88801 9.16008 8.50401 8.98408 8.93601 8.63208C9.36801 8.26408 9.58401 7.74408 9.58401 7.07208C9.58401 6.40008 9.36801 5.88008 8.93601 5.51208C8.50401 5.14408 7.88801 4.96008 7.08801 4.96008H4.01601V9.16008ZM7.40001 16.2641C8.21601 16.2641 8.84801 16.0721 9.29601 15.6881C9.76001 15.3041 9.99201 14.7601 9.99201 14.0561C9.99201 13.3361 9.75201 12.7761 9.27201 12.3761C8.79201 11.9601 8.14401 11.7521 7.32801 11.7521H4.01601V16.2641H7.40001Z" fill="white"/>
<path d="M28.9379 12.0641C28.9379 12.5441 28.9059 12.9761 28.8419 13.3601H19.1219C19.2019 14.3201 19.5379 15.0721 20.1299 15.6161C20.7219 16.1601 21.4499 16.4321 22.3139 16.4321C23.5619 16.4321 24.4499 15.8961 24.9779 14.8241H28.6019C28.2179 16.1041 27.4819 17.1601 26.3939 17.9921C25.3059 18.8081 23.9699 19.2161 22.3859 19.2161C21.1059 19.2161 19.9539 18.9361 18.9299 18.3761C17.9219 17.8001 17.1299 16.9921 16.5539 15.9521C15.9939 14.9121 15.7139 13.7121 15.7139 12.3521C15.7139 10.9761 15.9939 9.76808 16.5539 8.72808C17.1139 7.68808 17.8979 6.88808 18.9059 6.32808C19.9139 5.76808 21.0739 5.48808 22.3859 5.48808C23.6499 5.48808 24.7779 5.76008 25.7699 6.30408C26.7779 6.84808 27.5539 7.62408 28.0979 8.63208C28.6579 9.62408 28.9379 10.7681 28.9379 12.0641ZM25.4579 11.1041C25.4419 10.2401 25.1299 9.55208 24.5219 9.04008C23.9139 8.51208 23.1699 8.24808 22.2899 8.24808C21.4579 8.24808 20.7539 8.50408 20.1779 9.01608C19.6179 9.51208 19.2739 10.2081 19.1459 11.1041H25.4579Z" fill="white"/>
<path d="M35.2504 7.76808C35.6824 7.06408 36.2424 6.51208 36.9304 6.11208C37.6344 5.71208 38.4344 5.51208 39.3304 5.51208V9.04008H38.4424C37.3864 9.04008 36.5864 9.28808 36.0424 9.78408C35.5144 10.2801 35.2504 11.1441 35.2504 12.3761V19.0001H31.8904V5.70408H35.2504V7.76808Z" fill="white"/>
<path d="M49.9655 19.0001L45.4535 13.3361V19.0001H42.0935V1.24008H45.4535V11.3441L49.9175 5.70408H54.2855L48.4295 12.3761L54.3335 19.0001H49.9655Z" fill="#EE952C"/>
<path d="M55.7451 12.3041C55.7451 10.9601 56.0091 9.76808 56.5371 8.72808C57.0811 7.68808 57.8091 6.88808 58.7211 6.32808C59.6491 5.76808 60.6811 5.48808 61.8171 5.48808C62.8091 5.48808 63.6731 5.68808 64.4091 6.08808C65.1611 6.48808 65.7611 6.99208 66.2091 7.60008V5.70408H69.5931V19.0001H66.2091V17.0561C65.7771 17.6801 65.1771 18.2001 64.4091 18.6161C63.6571 19.0161 62.7851 19.2161 61.7931 19.2161C60.6731 19.2161 59.6491 18.9281 58.7211 18.3521C57.8091 17.7761 57.0811 16.9681 56.5371 15.9281C56.0091 14.8721 55.7451 13.6641 55.7451 12.3041ZM66.2091 12.3521C66.2091 11.5361 66.0491 10.8401 65.7291 10.2641C65.4091 9.67208 64.9771 9.22408 64.4331 8.92008C63.8891 8.60008 63.3051 8.44008 62.6811 8.44008C62.0571 8.44008 61.4811 8.59208 60.9531 8.89608C60.4251 9.20008 59.9931 9.64808 59.6571 10.2401C59.3371 10.8161 59.1771 11.5041 59.1771 12.3041C59.1771 13.1041 59.3371 13.8081 59.6571 14.4161C59.9931 15.0081 60.4251 15.4641 60.9531 15.7841C61.4971 16.1041 62.0731 16.2641 62.6811 16.2641C63.3051 16.2641 63.8891 16.1121 64.4331 15.8081C64.9771 15.4881 65.4091 15.0401 65.7291 14.4641C66.0491 13.8721 66.2091 13.1681 66.2091 12.3521Z" fill="#EE952C"/>
<path d="M76.7348 7.76808C77.1668 7.06408 77.7268 6.51208 78.4148 6.11208C79.1188 5.71208 79.9188 5.51208 80.8148 5.51208V9.04008H79.9268C78.8708 9.04008 78.0708 9.28808 77.5268 9.78408C76.9988 10.2801 76.7348 11.1441 76.7348 12.3761V19.0001H73.3748V5.70408H76.7348V7.76808Z" fill="#EE952C"/>
<path d="M85.2819 4.12008C84.6899 4.12008 84.1939 3.93608 83.7939 3.56808C83.4099 3.18408 83.2179 2.71208 83.2179 2.15208C83.2179 1.59208 83.4099 1.12808 83.7939 0.760082C84.1939 0.376082 84.6899 0.184082 85.2819 0.184082C85.8739 0.184082 86.3619 0.376082 86.7459 0.760082C87.1459 1.12808 87.3459 1.59208 87.3459 2.15208C87.3459 2.71208 87.1459 3.18408 86.7459 3.56808C86.3619 3.93608 85.8739 4.12008 85.2819 4.12008ZM86.9379 5.70408V19.0001H83.5779V5.70408H86.9379Z" fill="#EE952C"/>
<path d="M94.1176 7.76808C94.5496 7.06408 95.1096 6.51208 95.7976 6.11208C96.5016 5.71208 97.3016 5.51208 98.1976 5.51208V9.04008H97.3096C96.2536 9.04008 95.4536 9.28808 94.9096 9.78408C94.3816 10.2801 94.1176 11.1441 94.1176 12.3761V19.0001H90.7576V5.70408H94.1176V7.76808Z" fill="#EE952C"/>
</svg>
